<?xml version="1.0" encoding="UTF-8"?>
<svg id="Layer_1" xmlns="http://www.w3.org/2000/svg" version="1.1" viewBox="0 0 1920 1601">
  <!-- Generator: Adobe Illustrator 29.7.1, SVG Export Plug-In . SVG Version: 2.1.1 Build 8)  -->
  <defs>
    <style>
      .st0 {
        fill: #03345a;
      }

      .st1 {
        fill: #fec233;
      }

      .st2 {
        fill: #02335a;
      }

      .st3 {
        fill: #01325a;
      }

      .st4 {
        fill: #fec333;
      }
    </style>
  </defs>
  <path class="st1" d="M981.53,1c1.99.33,3.49.82,5.02.98,16.52,1.68,33.07,3.04,49.55,5,32.98,3.92,64.8,12.75,95.92,24.07,13.83,5.03,27.33,11.01,40.8,16.96,24.22,10.7,47.17,23.81,68.76,39.05,16.34,11.53,32.19,23.84,47.46,36.76,13.27,11.23,25.99,23.26,37.93,35.91,17.5,18.53,33.86,38.17,47.62,59.69,11.29,17.65,22.12,35.67,32.08,54.1,20.05,37.07,33.74,76.64,43.09,117.62,4.04,17.68,6.61,35.74,9.07,53.73,1.49,10.93,1.62,22.06,2.13,33.11.5,10.76,1.36,21.57.89,32.31-.76,17.11-2.25,34.2-3.86,51.26-3.59,38.03-13.14,74.7-25.97,110.56-9.36,26.13-20.34,51.59-34.88,75.28-11.64,18.97-23.65,37.75-36.47,55.93-8.13,11.53-17.76,22.06-27.22,32.59-8.98,10.01-18.03,20.09-28.09,28.97-16.89,14.9-34.13,29.5-52.08,43.08-24.25,18.35-50.6,33.52-78.16,46.39-33.59,15.68-68.27,28.38-104.73,35.65-16.52,3.29-33.11,6.28-49.75,8.84-8.77,1.35-17.72,1.76-26.61,2.11-14.43.57-28.9,1.39-43.31.89-17.11-.59-34.21-2.16-51.26-3.86-36.5-3.64-71.79-12.64-106.3-24.89-31.94-11.34-62.27-25.98-91.31-43.51-21.54-13.01-41.77-27.78-61.24-43.61-8.07-6.56-15.57-13.85-23.12-21.03-6.7-6.37-13.17-12.98-19.63-19.59-17.2-17.58-32.46-36.76-46.66-56.81-17.02-24.04-31.57-49.55-44.01-76.2-12.69-27.17-23.08-55.25-30.14-84.45-3.61-14.92-7.17-29.89-9.81-45-2.14-12.28-3.47-24.77-4.11-37.22-1.13-22.02-2.25-44.09-1.86-66.12.28-15.88,2.29-31.83,4.83-47.54,3.28-20.32,7.33-40.55,12.03-60.58,5.36-22.8,13.64-44.69,22.78-66.27,13.88-32.77,31.17-63.63,51.93-92.49,9-12.51,18.47-24.76,28.6-36.37,11.66-13.36,23.6-26.64,36.69-38.56,16.39-14.93,33.64-29.03,51.31-42.44,23.7-18,49.43-32.9,76.35-45.58,28.01-13.2,56.75-24.61,86.99-31.7,18.44-4.33,36.97-8.39,55.6-11.81,10.32-1.89,20.92-2.28,31.41-3.18,6.91-.59,13.85-.87,21-1.66,13.58-.37,26.93-.37,40.75-.37M721.43,912.07c68.19,39.81,141.81,61.18,220.63,64.55,42.27,1.81,84.09-1.98,125.32-11.59,104.99-24.49,192.38-78.07,260.71-161.25,76.46-93.07,112.13-200.49,108.12-321.02-.94-28.18-4.34-56.04-10.52-83.49-21.25-94.4-66.51-175.55-136.83-242.01-87.57-82.76-192.17-126.02-312.53-130.81-38.72-1.54-77.1,2.11-114.98,10.43-107.66,23.65-197.24,77.69-266.95,162.84-81.69,99.8-116.61,214.88-106.52,343.52,2.78,35.43,9.66,70.08,20.8,103.79,37.84,114.51,108.85,202.55,212.74,265.05h.01Z"/>
  <path class="st3" d="M721.1,911.9c-103.56-62.33-174.57-150.37-212.41-264.88-11.14-33.71-18.02-68.37-20.8-103.79-10.09-128.64,24.82-243.72,106.52-343.52,69.71-85.15,159.29-139.19,266.95-162.84,37.88-8.32,76.26-11.97,114.98-10.43,120.36,4.8,224.96,48.05,312.53,130.81,70.32,66.46,115.58,147.62,136.83,242.01,6.18,27.45,9.58,55.31,10.52,83.49,4.01,120.52-31.67,227.95-108.12,321.02-68.34,83.18-155.72,136.77-260.71,161.25-41.23,9.61-83.05,13.4-125.32,11.59-78.82-3.37-152.44-24.73-220.95-64.71M797.91,807.73c.26-.07.53-.15.79-.22-.2-.2-.4-.41-.56-1.38-.22-.8-.39-1.61-.66-2.4-13.57-39.78-20.93-80.69-21.14-122.69-.08-16.76,1.39-33.56,2.89-50.27.92-10.27,3.23-20.41,4.91-30.6,2.51,6.75,3.71,13.52,5.46,20.15,14.84,56.23,46.1,101.97,90.1,139.27,16.7,14.16,33.07,28.48,44.97,47.11,13.56,21.21,20.89,44.08,17.37,69.53-1.03,7.45-2.8,14.8-4.33,22.71,42.94-11.77,83.71-26.68,111.09-65.55.37,21.67-3.35,41.99-12.23,62.33,1.91-1.03,2.91-1.47,3.79-2.06,13.39-8.93,25.51-19.29,35.38-32.05,18.08-23.38,25.75-49.39,18-78.58-6.16-23.23-20.49-41.3-38.88-56.04-10.05-8.05-21.24-14.68-31.77-22.1,0,0,.14-.15.92-.16,3.3,1.11,6.65,2.11,9.89,3.36,31.8,12.26,60.63,28.98,82.47,55.87,16.65,20.5,25.73,43.69,23.65,70.51-.4,5.12-1.3,10.21-1.97,15.31.39.17.78.34,1.16.52,4.58-7.25,9.46-14.34,13.68-21.79,9.14-16.16,14.93-33.51,14.59-52.19-.51-28.23-13.02-51.01-34.84-68.3-19.14-15.17-41.36-25.17-63.57-35.02-14.1-6.25-28.59-11.88-41.94-19.48-28.25-16.09-48.59-39.15-56.67-71.41-7.15-28.54-3.25-56.44,6.3-83.79,2.41-6.91,5.39-13.62,8.11-20.42.47.11.94.23,1.41.34-.59,18.65.98,37.07,5.64,55.14,4.71,18.29,12.21,35.18,25.28,51.04-1.57-18.96,2.42-35.31,10.48-51.64.68,3.83,1.11,6.87,1.78,9.86,5.17,23.23,17.91,42,34.8,58.18,20.61,19.74,45.22,33.07,71.29,44.09,24.87,10.52,48.81,22.71,70.07,39.68,11.63,9.28,21.16,20.06,23.74,35.11,1.17,6.82.2,14,.2,22.35,7.93-6.2,15.87-11.45,22.68-17.9,25.42-24.04,36.71-52.88,26.19-87.47-2.61-8.57-3.07-14.9,2-22.65,4.19-6.41,5.89-14.46,8.69-21.78l-1.44-.78c-2.01.7-4.02,1.38-6.03,2.09-14.07,4.99-27.98,10.52-42.25,14.84-14.08,4.26-28.35,8.79-42.86,10.55-22.28,2.7-35.29-17.09-36.21-34.21,1.3.63,2.49,1.15,3.63,1.78,10.58,5.89,21.94,7.8,33.77,5.84,19.64-3.25,39.23-6.82,58.82-10.4,17.05-3.11,32.94-9.08,46.93-19.59.71-.53,1.62-.78,3.17-1.49-1.08,5.41-2.02,10.09-3.21,16.06,12.73-9.29,18.64-22.15,26.73-33.29l-.72-1.21c-5.49,1.92-10.98,3.85-14.93,5.23-4.45-3.98-7.84-7.84-12-10.51-4.57-2.93-9.82-4.83-14.83-7.05-13.14-5.82-16.83-12.11-15.46-26.87,21.8,8.8,44.19,2.98,67.13,3.63-1.36-1.88-2.09-2.96-2.89-3.98-23.17-29.44-46.59-58.69-69.33-88.45-4.36-5.7-7.83-13.18-8.73-20.21-2.1-16.3-7.84-30.84-16.9-44.24-15.2-22.48-34.81-40.72-56.46-56.73-13.98-10.34-28.69-19.71-43.22-29.62,25.23,5.73,50.22,12.15,72.92,26.05,1.95-99.49-90.53-162.18-161.58-166.03,8.36,8.14,17.39,16.93,26.02,26.11-.12.13-.25.27-1.12.33-.32-.08-.66-.13-.97-.25-60.41-23.59-122.85-31.12-187.07-22.69-47.99,6.3-92.93,21.96-134.83,46.24-5.98,3.46-11.8,7.19-17.7,10.79,6.9-.15,13.41-1.27,19.96-2.06,6.77-.82,13.56-1.56,20.37-1.9,6.43-.32,12.9-.07,20.21-.07-1.4.74-1.95,1.07-2.53,1.32-46.61,19.96-87.83,47.81-123.14,84.27-38.27,39.51-64.79,85.66-78.6,139.04-6.19,23.93-9.3,48.26-10.42,72.89-.24,5.32-.34,10.66-.25,15.98.08,5.12.5,10.24.76,15.36,16.34-47.59,40.76-90.05,74.51-127.07,21.55-23.64,45.74-44.11,73.42-60.23.13.16.25.31.06,1.06-8.47,9.17-17.42,17.95-25.32,27.59-44.82,54.72-70.91,117.23-77.8,187.76-3.05,31.2-1.87,62.19,3.57,92.96,10.18,57.55,33.46,109.34,69.81,155.16,15.25,19.23,32.1,36.92,51.79,52.57.25,0,.5-.02.75-.03-.2-.3-.4-.59-.69-1.57-36.62-50.02-40.97-109.71-31.76-145.78.39,1.31.64,1.98.79,2.68,4.51,21.46,12.36,41.62,24.06,60.19,13.27,21.05,29.76,39.1,50.82,53.41M1137.38,851.34l.19.12s-.03-.3-.19-.12Z"/>
  <path class="st4" d="M731.51,321.22c-27.37,16.64-51.56,37.11-73.11,60.75-33.76,37.03-58.18,79.48-74.51,127.07-.27-5.12-.68-10.24-.76-15.36-.09-5.33.01-10.66.25-15.98,1.11-24.63,4.22-48.96,10.42-72.89,13.81-53.38,40.34-99.53,78.6-139.04,35.31-36.46,76.53-64.31,123.14-84.27.58-.25,1.13-.59,2.53-1.32-7.32,0-13.78-.25-20.21.07-6.8.34-13.6,1.08-20.37,1.9-6.55.79-13.06,1.91-19.96,2.06,5.9-3.6,11.72-7.32,17.7-10.79,41.9-24.28,86.84-39.94,134.83-46.24,64.22-8.43,126.66-.89,187.07,22.69.31.12.64.17,1.48.52.94.29,1.37.31,1.8.33l-.81-1.32c-9.03-8.79-18.06-17.58-26.41-25.72,71.05,3.85,163.52,66.54,161.58,166.03-22.69-13.9-47.68-20.32-72.92-26.05,14.53,9.91,29.23,19.28,43.22,29.62,21.65,16.01,41.26,34.25,56.46,56.73,9.06,13.39,14.8,27.93,16.9,44.24.9,7.04,4.37,14.51,8.73,20.21,22.75,29.76,46.16,59.01,69.33,88.45.8,1.02,1.53,2.1,2.89,3.98-22.93-.64-45.33,5.17-67.13-3.63-1.37,14.75,2.32,21.04,15.46,26.87,5.01,2.22,10.26,4.12,14.83,7.05,4.16,2.66,7.55,6.52,12,10.51,3.95-1.38,9.44-3.31,14.93-5.23l.72,1.21c-8.09,11.14-14.01,24-26.73,33.29,1.19-5.97,2.13-10.65,3.21-16.06-1.55.72-2.47.97-3.17,1.49-13.99,10.5-29.88,16.48-46.93,19.59-19.59,3.57-39.18,7.15-58.82,10.4-11.83,1.95-23.19.05-33.77-5.84-1.13-.63-2.33-1.15-3.63-1.78.92,17.12,13.93,36.91,36.21,34.21,14.51-1.76,28.78-6.28,42.86-10.55,14.27-4.32,28.18-9.85,42.25-14.84,2-.71,4.02-1.4,6.03-2.09l1.44.78c-2.8,7.32-4.49,15.37-8.69,21.78-5.07,7.75-4.6,14.08-2,22.65,10.53,34.58-.76,63.43-26.19,87.47-6.81,6.44-14.75,11.7-22.68,17.9,0-8.34.97-15.53-.2-22.35-2.58-15.05-12.12-25.83-23.74-35.11-21.26-16.97-45.21-29.16-70.07-39.68-26.06-11.03-50.67-24.35-71.29-44.09-16.89-16.18-29.64-34.95-34.8-58.18-.66-2.99-1.1-6.03-1.78-9.86-8.06,16.33-12.05,32.68-10.48,51.64-13.07-15.87-20.57-32.76-25.28-51.04-4.66-18.07-6.23-36.48-5.64-55.14-.47-.11-.94-.23-1.41-.34-2.72,6.8-5.69,13.51-8.11,20.42-9.55,27.35-13.45,55.25-6.3,83.79,8.08,32.26,28.42,55.32,56.67,71.41,13.35,7.6,27.84,13.23,41.94,19.48,22.21,9.85,44.43,19.85,63.57,35.02,21.82,17.29,34.33,40.07,34.84,68.3.34,18.67-5.45,36.03-14.59,52.19-4.22,7.46-9.1,14.54-13.68,21.79-.39-.17-.78-.34-1.16-.52.67-5.1,1.57-10.18,1.97-15.31,2.08-26.82-7-50.01-23.65-70.51-21.84-26.89-50.68-43.61-82.47-55.87-3.25-1.25-6.59-2.25-10.45-3.62-1.12-.26-1.68-.26-2.24-.26-.01.17-.02.34-.04.5.59.11,1.18.21,1.78.32,10.67,7.27,21.86,13.9,31.91,21.95,18.39,14.74,32.72,32.8,38.88,56.04,7.74,29.19.08,55.2-18,78.58-9.87,12.76-22,23.13-35.38,32.05-.89.59-1.88,1.03-3.79,2.06,8.88-20.34,12.59-40.66,12.23-62.33-27.38,38.87-68.15,53.78-111.09,65.55,1.53-7.91,3.3-15.26,4.33-22.71,3.52-25.46-3.81-48.32-17.37-69.53-11.9-18.63-28.27-32.96-44.97-47.11-44-37.31-75.25-83.04-90.1-139.27-1.75-6.62-2.95-13.39-5.46-20.15-1.68,10.2-3.99,20.34-4.91,30.6-1.5,16.71-2.97,33.52-2.89,50.27.21,42.01,7.58,82.92,21.14,122.69.27.78.44,1.6.51,2.9-.15.51-.4.75-.4.75-20.74-13.97-37.23-32.02-50.5-53.06-11.7-18.56-19.55-38.72-24.06-60.19-.15-.7-.4-1.38-.79-2.68-9.21,36.07-4.87,95.75,31.68,146.23-.07.45-.32.68-.32.68-19.37-15.18-36.21-32.88-51.46-52.1-36.35-45.82-59.63-97.61-69.81-155.16-5.44-30.77-6.62-61.76-3.57-92.96,6.89-70.53,32.98-133.05,77.8-187.76,7.9-9.64,16.85-18.42,25.72-27.97.56-.67.72-.96,1.13-1.36.24-.36.23-.62.21-.87-.36.12-.72.23-1.28.42-.44.22-.65.4-.84.61M973.59,329.99c-7.42,1.57-14.85,3.14-22.93,4.85,19.03-20.7,41.87-33.57,68.86-39.24l.05-1.42c-11.48-.75-22.96-1.5-33.89-2.21,12.27-5.64,26.06-9.41,40.3-9.65,14.03-.24,28.09,1.46,42.07,2.3-14.49-19.29-31.31-36.73-54.83-46.24-12.05-4.87-24.57-5.69-37.25-2.92-25.18,5.52-39.3,22.56-44.6,46.44-3.47,15.62-3.46,31.98-5.47,47.96-2.4,19.11-4.78,38.36-19.89,52.98,29.06-.76,77.93-16.8,91.98-54.28-8.1.47-15.81.92-24.41,1.44M1114.61,382.98c-.96.62-1.93,1.23-3.34,2.13,4.01.41,7.23.74,10.62,1.09-1.02,5.53,1.67,9.06,5.19,12.07,10.33,8.82,22.54,11.05,35.53,9.17,4.76-.69,7.66.48,11.33,3.57,11.02,9.29,22.43,18.19,34.22,26.48,5.26,3.7,11.81,5.57,17.77,8.27.21-.38.42-.77.63-1.15-20.21-13.88-33.59-33.29-44.73-54.57-2.22-4.24-5.15-8.15-8.11-11.94-1.09-1.4-3.13-2.65-4.88-2.86-18.49-2.22-36.45-.35-54.24,7.75M986.26,476.52c.15.02.3.04.45.05-.06-.11-.13-.21-.45-.05Z"/>
  <path class="st4" d="M797.98,807.02c.33.08.53.29.73.49-.26.07-.53.15-.95.05-.16-.17.1-.41.23-.54h0Z"/>
  <path class="st4" d="M753.97,838.03c.32.18.52.48.72.77-.25,0-.5.02-.92-.21-.16-.23.08-.46.2-.57h0Z"/>
  <path class="st4" d="M1137.45,851.25c.08-.09.11.21.11.21,0,0-.19-.12-.11-.21Z"/>
  <path class="st2" d="M974.04,329.95c8.15-.48,15.86-.93,23.96-1.4-14.05,37.48-62.92,53.52-91.98,54.28,15.11-14.63,17.49-33.87,19.89-52.98,2.01-15.97,2-32.34,5.47-47.96,5.3-23.88,19.41-40.92,44.6-46.44,12.68-2.78,25.2-1.95,37.25,2.92,23.52,9.51,40.34,26.95,54.83,46.24-13.98-.84-28.04-2.53-42.07-2.3-14.24.24-28.03,4.02-40.3,9.65,10.92.71,22.41,1.46,33.89,2.21l-.05,1.42c-26.98,5.67-49.82,18.54-68.86,39.24,8.08-1.71,15.5-3.28,23.37-4.88h0Z"/>
  <path class="st0" d="M1114.95,382.83c17.45-7.95,35.42-9.83,53.91-7.6,1.74.21,3.78,1.46,4.88,2.86,2.96,3.79,5.89,7.7,8.11,11.94,11.14,21.28,24.52,40.69,44.73,54.57-.21.38-.42.77-.63,1.15-5.96-2.7-12.51-4.57-17.77-8.27-11.79-8.29-23.2-17.19-34.22-26.48-3.67-3.09-6.57-4.26-11.33-3.57-12.98,1.88-25.2-.35-35.53-9.17-3.52-3.01-6.21-6.53-5.19-12.07-3.39-.35-6.61-.68-10.62-1.09,1.41-.9,2.38-1.52,3.67-2.29v.02Z"/>
  <path class="st3" d="M1023.02,704.97c-.66-.03-1.25-.14-1.85-.24.01-.17.02-.34.04-.5.56,0,1.12,0,1.85.26.17.26.03.41-.04.48Z"/>
  <path class="st3" d="M1079.39,149.6c.46.25.73.69,1,1.13-.43-.02-.86-.04-1.43-.29-.01-.37.11-.51.43-.83h0Z"/>
  <path class="st3" d="M986.39,476.38c.2-.03.26.08.32.19-.15-.02-.3-.04-.32-.19Z"/>
  <path class="st3" d="M733.17,321.16c-.16.29-.32.58-.72.96-.37-.07-.5-.23-.78-.64.03-.47.25-.65.84-.71.35.09.67.4.67.4h-.01Z"/>
  <path class="st3" d="M732.7,320.69c.21-.28.57-.39.93-.51.01.25.03.51-.21.87-.25.11-.57-.2-.72-.36Z"/>
</svg>