<?xml version="1.0" encoding="UTF-8"?>
<svg id="svg" xmlns="http://www.w3.org/2000/svg" version="1.1" viewBox="0 0 400 400">
  <!-- Generator: Adobe Illustrator 29.7.1, SVG Export Plug-In . SVG Version: 2.1.1 Build 8)  -->
  <defs>
    <style>
      .st0 {
        fill: #99a4ad;
      }

      .st0, .st1, .st2, .st3, .st4 {
        fill-rule: evenodd;
      }

      .st1 {
        fill: #0a3e6a;
      }

      .st2 {
        fill: #fbfbfb;
      }

      .st3 {
        fill: #825a41;
      }

      .st4 {
        fill: #f0b21f;
      }
    </style>
  </defs>
  <g id="svgg">
    <path id="path1" class="st4" d="M333.47,54.9c-.26,1.56-.61,2.99-2.27,9.3-.7,2.64-1.42,5.43-1.6,6.2-.18.77-.78,3.11-1.33,5.2-.55,2.09-1.57,5.96-2.27,8.6-.69,2.64-2.35,8.76-3.68,13.6-1.33,4.84-2.59,9.43-2.8,10.2-.39,1.48-.93,3.41-1.52,5.4-.2.66-.55,1.92-.8,2.8-.69,2.48-.99,3.5-3.2,11-1.14,3.85-2.21,7.54-2.39,8.2-.92,3.43-6.94,22.87-9.66,31.2-1.08,3.3-2.52,7.71-3.19,9.8-.68,2.09-2.13,6.41-3.23,9.6-4.7,13.67-6.27,18.31-6.76,20-.29.99-.64,1.98-.79,2.2-.15.22-.37.76-.49,1.2-.12.44-.79,2.33-1.49,4.2-.7,1.87-1.8,4.82-2.44,6.56-.64,1.74-1.63,4.17-2.21,5.4-1.03,2.21-1.57,3.48-2.17,5.04-.17.44-.58,1.43-.92,2.2s-1.05,2.57-1.59,4.01c-.94,2.52-5.86,14.07-8.08,18.99-8.56,18.97-16.76,34.32-24.57,45.94-16.82,25.05-32.63,34.2-47.44,27.45-9.93-4.52-22.94-18.61-32.51-35.21-4.95-8.58-7.18-12.74-11.05-20.59-4.75-9.64-5.05-10.27-8.44-18-2.48-5.64-6.67-15.69-8.14-19.5-.32-.83-.57-1.46-1.63-4-.21-.49-.93-2.1-1.6-3.56-.68-1.46-1.23-2.81-1.23-3,0-.29-1.8-5.12-2.81-7.54-.18-.44-.57-1.52-.85-2.4-.28-.88-.62-1.78-.75-2-.13-.22-.49-1.21-.79-2.2-.3-.99-.66-1.98-.8-2.2s-.49-1.21-.78-2.2c-.29-.99-2.73-8.46-5.42-16.6-2.69-8.14-5.65-17.23-6.58-20.2-.93-2.97-1.84-5.85-2.03-6.4-.18-.55-.96-3.07-1.73-5.6-.77-2.53-1.94-6.4-2.61-8.6-1.62-5.36-3.18-10.72-3.9-13.4-.32-1.21-.94-3.37-1.37-4.8-3.8-12.64-10.73-38.58-15.43-57.8-1.45-5.94-2.81-11.11-3-11.5-.2-.38-.36-1.24-.36-1.9s-.2-1.21-.44-1.21c-.29,0-.35.46-.19,1.3.14.72.42,2.29.62,3.5s.55,3.24.78,4.5c.24,1.26.59,3.25.8,4.4.44,2.48,1.74,9.14,2.88,14.7.2.99,1.01,5.04,1.79,9,1.46,7.36,5.05,24.64,5.77,27.7.22.93.58,2.51.8,3.5s.57,2.56.78,3.5c.21.94.76,3.32,1.22,5.3.46,1.98,1.01,4.32,1.2,5.2,2.43,10.84,10.72,43.67,13.18,52.2.22.77.95,3.38,1.62,5.8,1.81,6.55,2.77,9.77,3.58,12,.4,1.1,1.12,3.35,1.61,5,.48,1.65,1.2,3.99,1.59,5.2.39,1.21,1.11,3.55,1.61,5.2.49,1.65,1.06,3.31,1.25,3.69.2.38.36,1.01.36,1.4,0,.77,4.54,14.69,7.21,22.1.91,2.53,1.8,5.05,1.98,5.6.29.9,2,5.39,2.82,7.4.18.44,1.1,2.78,2.03,5.2,26.07,67.15,55.28,96.5,83.1,83.5,10.26-4.79,22.13-16.82,31.09-31.49,6.23-10.21,7.99-13.42,12.95-23.6,2.14-4.4,4.17-8.63,4.52-9.4,1.77-3.98,2.38-5.39,4.23-9.8,2.84-6.76,8.14-20.33,9.27-23.8.18-.55.9-2.53,1.59-4.4,2.27-6.12,7.61-22.41,7.61-23.22,0-.43.16-1.1.36-1.49.2-.38.58-1.5.85-2.49.27-.99.62-2.16.79-2.6.17-.44.71-2.15,1.2-3.8.49-1.65,1.03-3.45,1.2-4,.17-.55.54-1.81.83-2.8.29-.99.65-1.89.79-2,.14-.11.54-1.28.89-2.6.35-1.32,1.26-4.57,2.04-7.23.78-2.66,1.69-5.85,2.03-7.1.34-1.25.87-3.22,1.18-4.37,2.89-10.64,4.98-18.71,7.65-29.5,2.3-9.29,4.32-17.66,5.03-20.8.22-.99.56-2.43.76-3.2.34-1.38.84-3.56,1.57-6.9.21-.94.57-2.56.8-3.6.24-1.04.6-2.67.8-3.6.2-.94.56-2.51.78-3.5,1.07-4.67,5.01-23.59,6.62-31.8.78-3.96,1.59-8.1,1.81-9.2.22-1.1.56-2.9.77-4s.59-3.08.85-4.4c.8-4.09,1.68-8.96,2.16-12,.1-.66.31-1.69.46-2.3.16-.65.11-1.1-.13-1.1-.22,0-.5.59-.62,1.3M206.88,155.75c.95,1.18,1.93,2.49,2.17,2.9.7,1.17,1.11.33.56-1.13-.92-2.45-1.3-3.02-2.28-3.47-2.07-.95-2.2-.47-.46,1.7M205.07,161.07c-.15.15-.27.57-.27.94,0,1.14-1.89,2.88-2.81,2.59-.49-.16-1.32.07-2.14.57-1.63,1.01-2.16,1.03-3.13.15-.7-.63-.87-.63-2.5-.03-1.65.61-1.78.61-2.42-.09-1.02-1.13-6.9,1.86-8.26,4.2-3.13,5.36-2.66,16.23.93,21.46.4.58.73,1.21.73,1.4,0,.58,2.88,2.87,3.97,3.14.57.14,1.31.48,1.64.76,1.2,1,3.97,1.49,6.82,1.21,2.87-.28,3.85-.97,1.38-.97-.77,0-1.4-.18-1.4-.4s-.32-.4-.7-.41c-.38,0-1.46-1.04-2.39-2.3-3.59-4.86-1.75-12.05,4.01-15.68l1.12-.7-1.42-.68c-4.33-2.06-3.87-8.65.51-7.26,2.4.76,3.91,4.63,2.39,6.14-.37.37-.29.48.38.48.47,0,.97-.18,1.1-.4.14-.22.65-.4,1.15-.4s1.42-.54,2.05-1.2c.63-.66,1.28-1.2,1.45-1.2s.78-.18,1.37-.41l1.07-.41-1.05-1.05c-2.05-2.05-.98-6.22,1.44-5.61.85.21.84.16-.21-.75-.62-.54-1.47-.98-1.9-.98s-.78-.24-.78-.54c0-.95-1.59-2.14-2.13-1.6M195.87,166.25c.15.4-.02.8-.45,1.04-.39.22-.99.73-1.35,1.15-.76.89-1.67,1-1.67.19,0-1.69,2.96-3.72,3.47-2.38M213.04,170.59l-.66,1.01h1.91c1.61-.02,1.78-.09,1.11-.46-.44-.24-1-.69-1.25-.99-.37-.46-.56-.38-1.11.45M173.18,171.9c-1.57,1.41-2.65,6.81-1.18,5.9.18-.11.23.14.12.56-.21.79,1.3,2.2,1.94,1.81.18-.11.33-.04.33.17,0,.49,3.51,1.38,4.06,1.03.56-.34-.39-.95-1.5-.95-.98,0-2.16-1.18-2.16-2.14,0-.37-.18-.67-.4-.67-.7,0-.43-2.03.43-3.24.72-1.01,1.08-1.16,2.8-1.16s1.97-.11,1.97-.81c0-1.86-4.5-2.2-6.42-.49M229.26,179.6c-1.1,1.4-1.65,1.51-1.94.4-.29-1.1-1.07-1-1.72.2-.29.55-.69,1-.87,1s-.33.35-.33.78-.18.89-.4,1.02-.4.65-.4,1.14c0,.57-.44,1.15-1.23,1.62-1.46.86-5.57,4.95-5.57,5.54,0,1.95,3.2,1.89,5.25-.1.91-.88,1.9-1.6,2.2-1.6s.55-.18.55-.4.63-.4,1.4-.4,1.4.18,1.4.4.55.4,1.21.4,1.66.29,2.2.64c1.31.86,1.8-.16.8-1.68-.94-1.44-.53-2.61,1.59-4.48,2.15-1.89,1.81-2.69-.95-2.24-1.73.28-2.18-.37-1.28-1.8,1.08-1.7-.61-2.08-1.91-.43M258.2,199.73c-6.95.82-17.01,3.67-24.29,6.87l-3.92,1.72-1.41-2.12c-1.59-2.39-1.78-2.58-3.89-3.76-2.11-1.18-3.1-1.07-4.35.45-1.02,1.24-1.12,1.28-2.43.8-2.58-.93-5.02.24-6.15,2.96-.37.87-.84,1.35-1.34,1.35-.43,0-1.28.2-1.89.45-.62.25-1.48.6-1.92.77-.76.31-1.42.44-5.2,1.02-.88.14-1.78.45-2,.7-.22.25-.85.69-1.4.98-2.19,1.16-4.23,4.86-3.05,5.55,2.13,1.25.59,5.32-2.01,5.32-.6,0-.76,2.21-.19,2.57.19.12.45.58.56,1.02.24.91-.17.77-1.61-.52-.62-.56-.9-.65-.9-.27,0,.92.94,3.2,1.32,3.2.2,0,.26.27.13.59-.55,1.43,1.23,1.43,2.32,0,.58-.77,1.33-1.39,1.65-1.39s.9-.16,1.28-.35c3.05-1.55,4.6-1.81,4.26-.71-.15.48-.29.88-.32.89-1.14.44-10.26,9.32-10.65,10.38-.11.3-.65,1.05-1.2,1.68-4.04,4.6-9.2,13.23-9.2,15.38,0,.66,8.66-.23,9.94-1.02.18-.11,1.65-.47,3.29-.81,6.35-1.31,17.67-4.77,20.47-6.26.38-.2.87-.37,1.09-.37.75,0,10.01-4.43,12.99-6.21,3.44-2.06,11.89-7.83,13.37-9.14,10.21-8.99,15.54-15.74,20.67-26.18,3.02-6.15,2.87-6.35-4.02-5.54M193.6,201.4c-.99.53-2.31.97-2.92.98-.68.01-1.63.49-2.4,1.22-1.44,1.35-2.09,1.46-3.73.6-2.05-1.07-6.18-.7-4.65.42.95.69.07,1.7-1.62,1.86-1.77.17-1.99,1.44-.3,1.78,1.54.31,1.55.78.01,2.36-1.73,1.78-1,2.32,2.3,1.71,2.96-.55,3.59-.34,4.34,1.47.81,1.93,1.78,1.86,1.78-.12,0-1,.29-1.84.86-2.44.65-.7.73-.99.35-1.23-.82-.51,3.48-2.98,6.2-3.56,3.47-.75,3.6-.86,3.57-3.05-.04-2.98-.99-3.48-3.77-2M223.54,204.22c.6,1.31.59,1.78-.04,1.77-.78-.02-2.3-1.44-2.3-2.15,0-1.08,1.81-.78,2.34.38M204.8,213.57c0,.42.48,1.15,1.06,1.61,1.3,1.02.93,1.54-.68.94-1.14-.43-1.18-.41-1.18.72,0,1.29,1.4,1.66,2.49.66,1.48-1.36,2.28-1.53,4.94-1.07,1.61.28,2.55.63,2.46.91-.25.76-7.57,6.26-8.33,6.26-1.09,0-1.41-1.6-.47-2.36.7-.56.72-.75.25-1.64-.29-.55-.53-.86-.54-.69s-.35.13-.76-.09c-.74-.4-1.21-4.71-.61-5.68.4-.65,1.37-.35,1.37.42"/>
    <path id="path2" class="st1" d="M211.04,168.74c-.35.56.19,1.72.71,1.54.59-.2.58-1.57-.01-1.77-.26-.08-.57.02-.7.23M208.59,172.67c-.45.09-1.33.57-1.96,1.07l-1.15.91.96.9c.77.73,1.25.86,2.46.67,1.25-.2,1.51-.12,1.54.47.02.39.2-.1.4-1.09.57-2.92.19-3.42-2.25-2.93M198.8,173.14c0,.86.51,1.66,1.07,1.66.84,0,.5-1.76-.37-1.93-.38-.07-.7.04-.7.26M215.01,192.32c-.43.1-1,.46-1.25.81-.26.35-1.07.84-1.81,1.09-.74.25-1.55.85-1.79,1.33-1.23,2.43-2.17,2.95-5.06,2.75-1.49-.1-2.7-.07-2.7.08,0,.39-2.69,1.62-3.55,1.62-1,0-1.29.39-.86,1.18.2.37.46,1.92.59,3.44q.47,5.86,4.52,4.94c5.9-1.37,7.06-1.91,7.94-3.78,1.45-3.06,4.11-3.98,8.02-2.77.66.2.92.07,1.13-.57.33-1.05,2-1.49,3.48-.93.99.37,1.13.33,1.13-.32,0-.8-5.5-7.08-6.25-7.15-.25-.02-.68-.32-.97-.66-.74-.89-1.66-1.27-2.57-1.06M139,198.99c-3.34.7-5.87,1.61-9.6,3.47-4.77,2.38-4.63,2.08-3,6.14.34.85.46,1.18,4.63,12.6,3.42,9.37,2.83,8.78,7.17,7.19.44-.16,2.15-.69,3.8-1.18,1.65-.49,3.41-1.05,3.92-1.25,1.29-.5,8.88-.44,10.52.08,5.74,1.83,13.04,7.16,22.06,16.11,5.52,5.48,4.9,5.29,7.09,2.16.96-1.37,2.43-3.34,3.28-4.36,1.9-2.3,1.94-1.95-.6-4.88-1.8-2.07-5.11-6.34-8.27-10.66-2.64-3.61-4.6-6.23-4.78-6.4-.12-.11-.97-1.2-1.89-2.41-9.11-12-23.34-18.88-34.32-16.59M265.49,198.68c-.39.1-.6.35-.47.56.8,1.29-5.05,12.25-10.15,19.04-11,14.63-28.08,25.92-49.07,32.44-7.5,2.33-11.16,3.29-12.57,3.29-3.74,0,2.6,3.93,8.76,5.43,2.5.61,10.09.75,11.84.21.64-.2,1.97-.59,2.96-.88,6.45-1.87,11.28-5.38,23.5-17.09,4.02-3.85,7.8-7.43,8.4-7.96,2.07-1.84,6.7-5.56,8.1-6.52.77-.53,1.49-1.07,1.6-1.21.4-.51,4.65-2.63,6.4-3.2,2.95-.96,8.04-.69,11.6.61,4.6,1.68,4.79,1.64,5.84-1.2,7.29-19.55,7.04-17.15,2.03-19.54-7.46-3.55-14.61-5.07-18.78-3.99M114,212.6c-1.98,1.2-6.51,3.43-8.6,4.22-2.63,1-5.43,1.95-7,2.38-.99.27-2.25.64-2.8.81-.55.18-1.63.42-2.4.55-.77.13-2.21.41-3.2.64-3.92.89-10.59,1.92-15.6,2.41-7.41.73-21.51,1.22-29.6,1.04-8.09-.18-8.26-.11-2.2.94,1.32.23,3.3.58,4.4.78,1.1.2,3.17.57,4.6.82,1.43.25,3.59.62,4.8.83,5.8,1.01,16.03,2.54,21.4,3.19,8.28,1.01,10.43,1.26,15,1.69,8.84.84,30.41.52,30.4-.46,0-.27-.2-.92-3.13-10.24-1.1-3.52-2.3-7.43-2.67-8.7-.77-2.67-.57-2.62-3.4-.9M298.28,211.5c-.09.16-.36.93-.59,1.7-.98,3.29-3.04,9.97-3.7,12-1.24,3.78-1.33,4.7-.51,4.95,9.74,2.98,22.04,3.48,35.32,1.42,8.93-1.38,14.46-2.49,19.8-3.96.66-.18,2.34-.57,3.72-.86,4.4-.93,3.87-1.42-1.82-1.7-2.81-.14-6.27-.43-7.71-.64-3.71-.55-7.48-1.16-9.8-1.61-6.36-1.22-7.4-1.45-10.8-2.4-.88-.25-2.14-.6-2.8-.78-4.2-1.15-10.74-3.66-15.31-5.86-5.73-2.77-5.57-2.71-5.82-2.26"/>
    <path id="path3" class="st3" d="M189.98,153.02c-.32.39-.58,1.26-.58,1.94v1.24l-4.4.1c-6.43.14-8.43,2.15-5.93,5.96.86,1.32.5,1.58-2.96,2.12-6.32,1-9.13,4.28-6.24,7.29l1.07,1.11-2.64,2.54c-4.25,4.08-4.08,6.61.51,7.64,2.07.46,2.29.89,1.09,2.13-1.73,1.81-.63,4.5,1.85,4.5,1.02,0,1.08.61.25,2.33-1.5,3.11-.92,4.07,2.45,4.07,2.3,0,3.01.48,2.54,1.71-.63,1.64,3.11,2.94,6.34,2.22,1.92-.43,2.68-.21,2.68.78,0,2,4.25,2.39,7.6.69,2.97-1.5,4.99-.2,4.25,2.75-.15.61-.02,1.14.38,1.47.67.56.46-3.06-.27-4.47-.39-.77-.1-1.15.89-1.15.85,0,3.55-1.23,3.55-1.62,0-.15,1.22-.19,2.7-.08,2.88.2,3.83-.31,5.06-2.75.24-.49,1.05-1.08,1.79-1.33.74-.25,1.55-.73,1.8-1.06.84-1.13,2.19-1.16,3.47-.08.8.67,1.43.91,1.89.72.57-.24.5-.35-.43-.61-2.41-.69-2.58-2.74-.33-3.95,1.07-.57,2.15-2.39,1.87-3.13-.19-.5-.83-.08-2.93,1.94-7.07,6.81-18.65,11.03-24.65,8.99-3.61-1.22-7.83-4.14-7.83-5.4,0-.21-.23-.61-.5-.9-4.52-4.78-3.48-21.28,1.49-23.61.67-.31,2.18-1.08,3.36-1.71,1.94-1.03,2.18-1.08,2.52-.47.44.79,1.2.84,2.99.19,1.11-.4,1.43-.37,2.06.2.99.89,1.75.85,3.04-.16.7-.55,1.39-.76,1.99-.61,1.17.29,2.6-.97,2.92-2.58.34-1.68,2.53-1.1,2.53.66,0,.31.36.57.81.57,1.25,0,4.38,3.15,5.38,5.42.84,1.89,2.95,3.56,3.64,2.88,1.28-1.27-.02-5.9-1.66-5.9-.81,0-.96-.25-1.16-1.9-.44-3.54-1.33-4.71-3.52-4.63-1.12.04-1.89-.11-1.89-.36,0-1.03-3.25-4.7-4.15-4.7-.51,0-1.47-.27-2.14-.61-1.54-.76-2.22-.5-2.82,1.09l-.48,1.27-.91-.81c-2.27-2.03-7.28-3.18-8.32-1.92M193.44,166.83c-1.12,1.33-1.35,2.37-.53,2.37.28,0,.8-.34,1.16-.76.36-.42.96-.93,1.35-1.15.81-.45.53-1.69-.37-1.69-.32,0-1.04.55-1.61,1.23M211.03,168.35c-.12.2.09.33.48.3.52-.04.68.22.62,1.02-.05.79.08,1.02.5.86.73-.28.72-.55-.05-1.64-.66-.94-1.19-1.12-1.55-.53M178.63,171.21l1.09.41-.27,4.46c-.31,5.12-.56,5.63-2.6,5.29-3.7-.62-4.48-1.26-5.39-4.37-1.13-3.88,3.14-7.32,7.18-5.79M208.11,172.13c-2.76,1.01-3.7,4.27-1.23,4.27.26,0,.04-.39-.47-.87l-.93-.87,1.12-.9c2.35-1.88,4.82-1.58,4.46.53-.09.5.02.78.23.65.5-.31.04-2.61-.6-3.01-.63-.4-1-.37-2.58.2M199.7,172.83c.81.47.93,1.81.2,2.1-.29.12-.21.21.21.23.39.02.82-.24.95-.58.25-.66-.9-2.19-1.62-2.17-.24,0-.12.2.26.42M198.4,183.38c0,.32.18.69.4.82s.4-.12.4-.58-.18-.82-.4-.82-.4.26-.4.58M204.32,184.88c.37.37.59.37.96,0s.27-.48-.48-.48-.85.11-.48.48M201.8,187.58c-.44.17-.94.24-1.1.14-.65-.38-.72,1.06-.11,2,1.86,2.84,5.37,3.75,8.72,2.27,1.97-.87,2.81-2,1.48-2-.43,0-.79-.15-.79-.33,0-1.23-6.32-2.84-8.2-2.09M208.66,197c-.33.33-.93.59-1.33.59-.68-.01-.68-.05.05-.6,1.08-.82,2.1-.81,1.28.01M264.16,200.3c-.06,1.65-4.12,9.74-7.08,14.1-3.99,5.87-8.69,11.03-15.53,17.05-1.48,1.3-9.93,7.08-13.37,9.14-2.98,1.78-12.25,6.21-12.99,6.21-.22,0-.71.17-1.09.37-2.71,1.44-14.24,4.99-19.97,6.15-2.8.57-3.83,1.15-1.47.84,21.85-2.89,49.32-18.73,62.22-35.88,4.57-6.08,10.33-16.54,10.33-18.78,0-.9-1.01-.12-1.04.8M220.66,201.79c-.33.33-.66.81-.75,1.07-.12.36-.47.37-1.5,0-3.16-1.1-7.62.85-7.62,3.32,0,1.05-3.16,2.53-6.8,3.17-.77.14-2.12.42-3,.63l-1.6.38,1.8-.18c2.39-.24,4.46-.6,5.2-.88.33-.13,1.4-.53,2.38-.89,1.27-.47,1.99-1.05,2.53-2.04,1.69-3.1,3.7-4.02,6.87-3.14,1.48.41,1.62.37,2.33-.6.78-1.07,2.79-1.46,3.29-.64.14.22.46.39.72.39.26,0,.13-.28-.3-.6-1-.76-2.8-.75-3.56,0M221.2,203.91c0,.72,2.26,2.36,2.68,1.94.32-.33-.7-2.65-1.17-2.65-.22,0-.29.27-.16.6.13.33.06.6-.16.6s-.39-.27-.39-.6-.18-.6-.4-.6-.4.32-.4.71M124.82,205.28c-.01.38.18,1.18.43,1.8.75,1.88,1.05,2.66,1.55,4.12.26.77.62,1.76.8,2.2.18.44.54,1.43.8,2.2.26.77.62,1.76.8,2.2s.9,2.33,1.6,4.2c2.54,6.75,2.9,7.6,3.21,7.6.18,0,.09-.5-.2-1.1-.44-.94-1.78-4.54-6.3-16.9-.44-1.21-.95-2.56-1.13-3-.18-.44-.6-1.52-.94-2.4-.34-.88-.63-1.29-.64-.92M287.47,208.1c-1.73,5.05-5.41,14.76-6.08,16.03-.37.7-.42,1.08-.14.98.25-.08.9-1.31,1.44-2.73,1.36-3.55,3.23-8.55,4.19-11.18.84-2.31,1.13-3.08,1.87-4.92.53-1.32.55-1.48.15-1.48-.17,0-.81,1.49-1.43,3.3M116.78,211.7c.2.5,1.38,4.23,2.63,8.3,3.15,10.33,4.12,13.14,4.16,12.1.02-.5-.13-1.22-.33-1.6-.2-.38-.76-2.04-1.25-3.69-.49-1.65-1.21-3.99-1.6-5.2-.39-1.21-1.09-3.46-1.55-5-1.63-5.43-1.77-5.8-2.09-5.8-.18,0-.16.4.04.9M297.25,212.7c-.29,1.04-.66,2.35-.84,2.9-.17.55-.72,2.35-1.21,4-.49,1.65-1.03,3.36-1.2,3.8-.17.44-.53,1.61-.8,2.6-.27.99-.68,2.21-.91,2.7-.23.49-.31,1.01-.17,1.15.3.3.7-.68,1.89-4.65.49-1.65,1.22-3.99,1.62-5.2.39-1.21,1.1-3.53,1.58-5.15.47-1.62.95-3.2,1.07-3.5s.05-.55-.14-.55-.59.85-.88,1.9M203.47,213.07c-.86.87,1.03,3.33,2.55,3.33,1.04,0,.98-.32-.22-1.27-.55-.43-1-1.13-1-1.56,0-.75-.79-1.05-1.33-.5M203.21,217.49c-.02,1.18,1.32,1.92,1.99,1.11.4-.48.36-.59-.21-.59-.39,0-.94-.32-1.24-.7-.49-.65-.53-.64-.54.19M191.19,224.21c-.54.65.22,1.85,1.66,2.62.72.39.62-1.01-.1-1.46-.19-.12-.35-.57-.35-.99,0-.93-.51-1-1.21-.17M191.29,228.88c.2.6,1.11.93,1.11.4,0-.21-.28-.5-.63-.63-.39-.15-.57-.06-.47.23M188.98,239.72c-2.94,3.76-5.48,7.51-5.25,7.74.13.12.73-.56,1.35-1.52,1.42-2.22,3.21-4.6,4.62-6.14.6-.66,1.1-1.43,1.1-1.7,0-.71-.02-.69-1.82,1.62"/>
    <path id="path4" class="st0" d="M189.89,152.4c-.78.61-1.09,1.22-1.09,2.13v1.27h-4.43s-4.43,0-4.43,0l-1.21,1.35c-1.26,1.41-1.38,3.77-.25,5.13.53.64.21,1.02-.99,1.19-7.97,1.11-11.33,4.78-7.94,8.66.61.7.54.84-1.26,2.4-4.62,4.01-4.52,9.06.18,9.06,1.43,0,1.61.37.72,1.51-1.59,2.01-.21,4.89,2.33,4.89.79,0,.79.02.04,1.49-1.69,3.32-.6,5.32,2.91,5.32,1.83,0,1.89.04,2.01,1.3.19,1.95,2.07,2.8,5.76,2.59,2.54-.14,2.87-.08,3.2.65.2.44.61.88.9.98.4.13.43,0,.13-.57-.22-.41-.51-1.07-.63-1.48-.2-.63-.48-.69-1.93-.44-4.27.73-7.63-.26-6.94-2.05.49-1.29-.19-1.77-2.52-1.77-3.36,0-3.95-.97-2.45-4.07.83-1.72.76-2.33-.25-2.33-2.47,0-3.58-2.69-1.85-4.5,1.19-1.25.98-1.67-1.09-2.13-4.59-1.03-4.76-3.56-.51-7.64l2.64-2.54-1.07-1.11c-2.89-3.01-.08-6.29,6.24-7.29,3.47-.55,3.83-.81,2.96-2.12-2.5-3.81-.5-5.82,5.93-5.96l4.4-.1v-1.24c0-3.25,5.28-3.26,8.91-.02l.91.81.48-1.27c.61-1.62,1.25-1.84,2.94-1.04.85.4,1.76.54,2.43.38.59-.15,1.55-.07,2.15.18,1.08.45,1.47,1.01,2.39,3.47.38,1.01.74,1.3,1.74,1.4,1.5.14,2.5,1.82,2.87,4.8.21,1.67.35,1.89,1.31,2,1.47.17,2.15,1.7,1.83,4.08l-.25,1.85h-2.39c-2.14,0-2.34-.07-1.87-.64.44-.53.43-.62-.05-.55-1.93.28-2.74-.6-1.75-1.87.55-.7.62-.68,1.57.46,1.11,1.33,1.29.87.45-1.15-1.07-2.56-3.5-3.74-4.79-2.32-1.58,1.74-.29,5.5,2.15,6.27.88.28,1.46,2.48.83,3.12-.24.24-.45.99-.45,1.66,0,1.02-.08,1.11-.42.52-.29-.5-.91-.7-2.18-.7-1.41,0-1.89-.19-2.38-.93-.62-.94-2.71-1.08-3.24-.22-.12.19-.6.35-1.07.35-.67,0-.75-.11-.38-.48,1.57-1.57-.08-5.54-2.56-6.17-4.31-1.08-4.67,4.86-.44,7.23,1.74.97,3.55,1.08,2.22.13-.41-.29-.36-.33.18-.15.4.13,1.25-.03,1.88-.36,1.57-.81,2.38-.75,3.44.24.56.53,1.46.85,2.43.88,1.65.04,2.5.76,2.52,2.14,0,.47.29,1.08.63,1.37,1.25,1.04.56,2.54-1.42,3.05-3.67.95-9.54.33-11.05-1.18-.26-.26-1.77-.42-1.74-.18.07.5,1.53,4.38,1.73,4.57.14.14.26.62.26,1.05s.46,1.4,1.03,2.15c4.75,6.22,12.85,3.39,15.12-5.28.33-1.26,1.04-2.77,1.57-3.35,1.16-1.26,1.65-2.85.87-2.85-.29,0-.93.55-1.41,1.23-1.69,2.37-2.78,3.26-3.02,2.46-.12-.38-.36-.97-.53-1.31-.18-.34-.45-1.19-.6-1.9-.15-.71-.45-1.39-.65-1.51-.49-.31-.47-2.07.03-2.38.22-.14.4-.88.4-1.65v-1.41l2.3.28c1.26.15,2.47.3,2.68.33.46.06.91-1.77.98-3.96.05-1.8-.77-3.26-2.14-3.78-.66-.25-.97-.79-1.17-2.02-.41-2.58-1.3-3.98-2.7-4.26-.96-.19-1.38-.61-1.95-1.93-1.2-2.8-2.74-3.49-8.75-3.9-1.29-.09-1.41,0-2.33,1.66-.05.08-.74-.24-1.53-.71-.8-.47-2.2-1.04-3.12-1.28-.92-.23-2.03-.51-2.48-.62-.48-.12-1.26.15-1.9.66M211.93,166.83c.41.66.37.77-.25.77-1.06,0-1.95,1.78-1.29,2.57.27.33.42.83.32,1.11-.35,1.01-2.7-2.05-2.7-3.51,0-2.48,2.58-3.11,3.93-.95M200.61,170.93c.86,1.23.74,1.48-.59,1.21-1.54-.31-2.55,1.37-1.54,2.55,1.3,1.51,1.21,1.76-.35.96-2.23-1.14-2.99-2.99-2.07-5.03.75-1.64,3.31-1.48,4.55.29M200.59,173.18c.76.85.58,2.01-.31,2.01-1.03,0-2.05-1.51-1.48-2.19.66-.79.94-.77,1.79.18M174.83,174.36c-.86,1.21-1.13,3.24-.43,3.24.22,0,.4-.6.4-1.34,0-1.73,1.04-2.66,2.98-2.66,1.38,0,1.49.08,1.27.9-.13.49-.24,1.93-.25,3.2,0,2.68-1.16,3.18-3.02,1.32-.57-.57-.98-.76-.98-.46,0,.82,1.27,1.72,2.84,2l1.44.26.26-2.71c.48-5.09.54-4.91-1.71-4.91-1.72,0-2.08.15-2.8,1.16M197.31,178.5c-.83.71-1.57,1.42-1.63,1.56-.07.14-.49.68-.93,1.2-1.02,1.17-1.95,3.36-1.92,4.49.02.47.34-.05.72-1.17.64-1.87,2.62-4.96,3.2-5,.5-.03,3.01-2.38,2.55-2.38-.26,0-1.15.59-1.99,1.3M229.4,178.8c-.86.95-1.63,1.03-1.94.2-.39-1.02-1.3-.67-2.35.9-1.17,1.77-1.82,3.54-1.15,3.12.24-.15.44-.62.44-1.05s.15-.78.33-.78.57-.45.87-1c.58-1.08,1.6-1.35,1.6-.42,0,1.17.93,1.12,2.01-.12,1.46-1.67,3.06-1.36,1.96.38-.91,1.43-.45,2.08,1.28,1.8,2.76-.44,3.1.36.95,2.24-2.12,1.87-2.53,3.03-1.59,4.48,1,1.52.51,2.54-.8,1.68-.54-.35-1.53-.64-2.2-.64s-1.21-.18-1.21-.4-.63-.4-1.4-.4-1.4.18-1.4.4-.25.4-.55.4-1.29.72-2.2,1.6c-1.81,1.76-3,2-4.76.96l-1.09-.64.94.84c.52.46,1.28.84,1.69.84.5,0,.67.2.51.61-.15.39.77,1.66,2.61,3.6,1.89,1.99,2.85,3.32,2.85,3.95,0,.52.27,1.17.6,1.45.49.41.6.38.6-.13,0-.34-.16-.72-.35-.84-.19-.12-.45-.75-.59-1.4-.13-.65-1.05-2.04-2.05-3.08-1-1.04-1.81-2.04-1.81-2.22s-.26-.33-.58-.33c-1.42,0-.82-.91,1.97-3.01,3.33-2.5,5.64-2.78,7.96-.95,1.55,1.22,3.75-.01,2.79-1.56-.23-.37-.67-1.08-.98-1.57-.52-.84-.42-1.03,1.6-3.08,2.49-2.52,2.37-3.43-.43-3.43-1.46,0-1.55-.07-1.47-1.11.16-2.12-1.29-2.82-2.67-1.29M199.2,183.62c0,.45-.18.71-.4.58s-.4-.51-.4-.82.18-.58.4-.58.4.37.4.82M214,184.39c0,.43-.45,1.56-1,2.5-1.8,3.08-1.68,2.97-2.48,2.4-2.41-1.69-3.25-2.09-4.32-2.05-1.13.04-1.12.06.27.33.81.16,1.95.63,2.55,1.05.6.42,1.39.95,1.77,1.17,1.02.61.56,1.3-1.47,2.19-3.45,1.52-7.31.41-8.9-2.56-.73-1.36-.34-1.72,2.39-2.21l2.19-.39-2.5.2c-2.39.19-2.52.16-2.97-.83-.64-1.41.05-2.16,1.36-1.49,1.03.53,3.59.54,3.27.02-.12-.19.17-.34.64-.34.53,0,.74.17.57.46-.43.7,5.38.21,6.83-.57,1.57-.85,1.8-.84,1.8.11M223.2,184.39c0,.95-2.45,1.72-2.68.84-.28-1.07.05-1.3-3.77,2.51-1.84,1.83-3.94,3.59-4.65,3.9-.72.31-1.3.7-1.3.87s-.36.3-.8.3-.8.16-.8.35-.32.46-.7.58c-.38.13-1.66.59-2.84,1.03-6.93,2.6-11.65.26-12.49-6.17l-.26-2-.05,2.2c-.05,2.4,2.53,6.78,4,6.79.37,0,.73.2.81.44.09.26,1.31.44,3.04.44,4.62,0,11.46-3.48,16.57-8.42,2.18-2.11,2.73-2.47,2.94-1.92.24.61.4.6,1.82-.2,1.28-.72,2.13-1.93,1.36-1.93-.11,0-.2.18-.2.39M207.38,196.99c-.73.55-.73.59-.05.6.4,0,1-.26,1.33-.59.82-.82-.2-.83-1.28-.01M267.6,198.02c-1.12.22-.84.29,1.37.33,1.52.03,2.69-.01,2.6-.09-.42-.36-2.7-.49-3.97-.24M139.4,198.41c-3.41.54-12.98,4.37-14.57,5.83-.78.72.66.36,2.22-.55,5.65-3.3,11.43-5.05,17.95-5.44,1.33-.08,1.06-.13-.8-.14-1.54-.01-3.7.12-4.8.29M149.2,199c3.23.76,4.36,1.16,6.8,2.4,5.92,2.99,13.58,9.27,17.31,14.19.92,1.22,1.78,2.3,1.89,2.41.18.17,2.14,2.79,4.78,6.4,5.47,7.48,10.34,13.4,10.72,13.02.12-.12-.6-1.08-1.59-2.13-.99-1.06-4.74-5.87-8.34-10.71-3.6-4.83-6.65-8.88-6.76-8.99s-1.09-1.24-2.16-2.52c-5.86-6.98-18.49-14.81-23.62-14.64-.96.03-.74.16.97.56M263.4,198.8c-.3.48.88.48,2,0,.67-.29.6-.35-.48-.37-.7-.01-1.39.15-1.52.37M274.2,198.97c3.6.83,5.97,1.72,10.52,3.93,2.27,1.1,4.21,1.91,4.31,1.81.76-.76-12.13-5.9-15.43-6.15-1.67-.13-1.62-.1.6.42M197.44,202.6c.33,1.98.56,2.3.56.77,0-.64-.19-1.44-.42-1.77-.29-.43-.33-.15-.14,1M187.44,202.86c.57.92-.98,1.52-2.4.93-2.82-1.18-7.27-.66-5.92.69.74.74.58,1.12-.48,1.12-2.27,0-3.47,2.55-1.44,3.08,1.01.26,1,.67-.04,2.08-1.64,2.21-.22,3.31,2.86,2.23,2.13-.75,3.01-.49,3.84,1.13,1.27,2.47,3.53,2.26,3.05-.28-.11-.59.11-1.46.55-2.12.41-.62.93-1.46,1.15-1.87.37-.67,2.78-1.76,6.62-2.99,2.62-.84,3.17-.5,3.17,1.93,0,.62.3,1.36.66,1.66.58.48.63.45.42-.25-.13-.44-.42-1.58-.63-2.55-.48-2.16-.91-2.65-1.9-2.12-.41.22-1.83.63-3.15.91-2.71.58-7.01,3.05-6.2,3.56.38.24.3.53-.35,1.23-.56.6-.86,1.44-.86,2.44,0,1.98-.97,2.05-1.78.12-.75-1.8-1.38-2.02-4.34-1.47-3.3.61-4.02.07-2.3-1.71,1.53-1.58,1.53-2.05-.01-2.36-1.69-.34-1.47-1.6.3-1.78,1.69-.16,2.56-1.17,1.62-1.86-1.52-1.12,2.61-1.48,4.65-.42,1.56.82,2.27.74,3.55-.39,1.36-1.2,1.37-1.41.08-1.41-.67,0-.92.16-.74.46M213.33,203.88c-1.37,1.21-3.16,4.12-2.53,4.12.21,0,.64-.61.95-1.35.79-1.9,3.13-3.61,4.55-3.32.61.12,1.64.33,2.3.47.98.2,1.07.17.5-.19-1.64-1.04-4.42-.91-5.77.28M115.89,210.79c-3.71,3.62-19.24,9.04-30.99,10.83-1.38.21-3.72.57-5.2.8-7.09,1.09-12.83,1.36-29.27,1.37-9.56,0-17.03.08-16.6.16.43.08.88.31,1,.51.13.2,1.3.56,2.6.79,3.81.69,6.21,1.12,8.77,1.55,4.52.76,6.8,1.16,9.2,1.6,10.8,1.99,36.06,5.2,40.88,5.2,3.35,0,1.52-.42-3.53-.8-6.96-.53-15.51-1.56-26.65-3.23-3.25-.48-6.95-1.08-9.7-1.56-1.21-.21-3.37-.59-4.8-.83-1.43-.25-3.5-.61-4.6-.82-1.1-.2-3.08-.55-4.4-.78-6.06-1.05-5.89-1.12,2.2-.94,8.09.18,22.19-.31,29.6-1.04,5.01-.49,11.68-1.52,15.6-2.41.99-.22,2.43-.51,3.2-.64.77-.13,1.85-.38,2.4-.55.55-.18,1.81-.54,2.8-.81.99-.27,2.79-.85,4-1.29s2.56-.92,3-1.07c1.96-.69,10.29-5.07,10.88-5.72.85-.94.53-1.21-.38-.32M298.41,210.41c-.01,1.19,13.75,7.23,20.99,9.21.66.18,1.92.53,2.8.78,4.21,1.18,8.81,2.14,15.4,3.21,5.94.96,8.05,1.2,12.9,1.44,5.69.28,6.22.78,1.82,1.7-1.39.29-3.06.68-3.72.86-5.34,1.47-10.87,2.57-19.8,3.96-11.87,1.84-24.72,1.57-32.6-.67-1.54-.44-3.05-.87-3.35-.95-.3-.08-.63.05-.72.31-.09.25.07.43.35.41.29-.03,2.5.43,4.92,1.02,6.64,1.62,12.65,2.07,20.36,1.53,11.46-.8,25.8-3.29,34.87-6.04.68-.21,1.58-.38,2-.39.43,0,1.4-.35,2.17-.76,1.78-.95,1.31-1.08-5-1.4-5.45-.28-13.07-1.21-17.8-2.18-.99-.2-2.88-.56-4.2-.81-10.12-1.84-29.41-8.92-31.09-11.4-.19-.27-.3-.21-.3.18M203.21,215.5c0,.38.18.97.39,1.3.29.46.39.29.39-.7,0-.72-.17-1.3-.39-1.3s-.4.32-.39.7M207.83,216.52c-1.7,1.05-2.63,2.06-2.63,2.85,0,.69.14.61.78-.45,1.28-2.09,3.51-2.67,6.72-1.75.71.21,1.3.22,1.3.04s-1.14-.53-2.53-.77c-2.95-.51-2.66-.52-3.64.08M195.2,219c.11,2.41.08,2.49-1.1,2.79-2.06.51-3.71,2.11-3.65,3.53.05,1.09.08,1.13.23.28.18-.99,1.75-2.8,2.43-2.8,1.81,0,2.91-1.31,2.65-3.14-.34-2.37-.66-2.74-.57-.66M205.85,220.72c-.18.3.09.65.72.94.85.39.94.57.53,1.1-.31.4-.17.36.39-.12.98-.83.86-1.45-.29-1.45-.41,0-.82-.22-.9-.48-.12-.37-.23-.37-.46,0M204.64,221.54c-.51.82.15,2.07,1.09,2.06.55,0,.7-.12.39-.31-.26-.17-.64-.74-.83-1.26-.23-.63-.45-.79-.65-.49M267,222.23c-2.98.71-7.88,2.84-8.6,3.75-.11.14-.83.68-1.6,1.21-1.4.96-6.02,4.68-8.1,6.52-.6.53-4.38,4.12-8.4,7.96-12.23,11.71-17.06,15.22-23.5,17.09-.99.29-2.32.68-2.96.88-5.62,1.71-16.65-.7-21.57-4.72-1.21-.99-1.87-1.17-1.87-.52,0,.22.24.4.53.4s.88.32,1.32.7c1.5,1.32,4.7,3.01,6.96,3.66.99.29,2.23.69,2.76.9,1.37.54,10.86.48,12.91-.08,4.22-1.14,7.76-2.86,12.3-5.97,3.15-2.16,5.63-4.35,13.83-12.23,12.66-12.16,20.41-18.18,23.42-18.18.4,0,.85-.18.98-.4.31-.5,7.43-.53,8.68-.04.51.2,1.73.59,2.72.88.99.29,2.39.84,3.1,1.24.71.39,1.3.54,1.3.32,0-1.47-11.09-4.1-14.2-3.37M145.8,225.98c-.44.18-2.15.73-3.8,1.22-1.65.49-3.36,1.03-3.8,1.2-.44.17-1.59.54-2.55.83-.96.29-1.54.6-1.29.68.26.09,2.85-.59,5.76-1.51,2.91-.91,5.84-1.83,6.51-2.04,6.34-1.94,17.12,2.17,24.17,9.22.11.11,2.16,2,4.57,4.2,2.4,2.2,5.24,5.04,6.3,6.32,1.06,1.28,1.93,2.03,1.93,1.68,0-.75-8.39-9.13-13-13-5.14-4.3-10.43-7.58-14.16-8.77-1.57-.5-9.45-.54-10.64-.05M201,226.29c-.44.08-1.16.3-1.6.49-.44.19-1.16.47-1.6.63-.47.16-.6.36-.32.46.26.1.84-.01,1.27-.25,1.08-.58,2.44-.54,2.47.07.01.28.2.07.41-.46.44-1.11.43-1.14-.63-.95M190.64,227.77c-.35,1.38.23,2.37,1.82,3.14,1.38.67,1.93.58,1.93-.3,0-.3.55-1.01,1.23-1.58.74-.63,1-1.04.64-1.04-.32,0-1.11.64-1.74,1.43l-1.15,1.43-1.11-.87c-.69-.54-1.03-1.12-.9-1.53.11-.36.05-.9-.13-1.2-.25-.4-.41-.26-.6.51M118.6,233.2c-1.78.45,1.42.47,3.6.02l1.6-.33h-2c-1.1,0-2.54.14-3.2.31M105.14,234.07c2.45.21,5.72.21,8,0,3.53-.33,3.19-.36-4.14-.36s-7.76.02-3.86.36"/>
  </g>
  <path class="st2" d="M238.83,193.53"/>
</svg>